<svg xmlns="http://www.w3.org/2000/svg" width="113" height="34" viewBox="0 0 113 34">
  <path fill="#0000DC" fill-rule="evenodd" d="M0,33.6136985 L4.95562247,33.6136985 L4.95562247,0 L0,0 L0,33.6136985 Z M14.9569521,33.6136985 L19.9125746,33.6136985 L19.9125746,0 L14.9569521,0 L14.9569521,33.6136985 Z M5.13579195,0 L8.01914481,33.6136985 L9.64099071,33.6136985 L6.80268023,0 L5.13579195,0 Z M13.1999791,0 L9.82116019,33.6136985 L11.4430061,33.6136985 L14.7767827,0 L13.1999791,0 Z M38.5187602,0 L33.5631377,0 L33.5631377,25.8825427 C33.5631377,30.3963417 37.3923804,33.9017588 41.4920375,33.9017588 C45.5916946,33.9017588 49.4210976,30.3963417 49.4210976,25.8825427 L49.4210976,0 L44.4654751,0 L44.4654751,25.6905025 C44.4654751,27.5152261 42.9337139,28.8116683 41.4920375,28.8116683 C40.0505214,28.8116683 38.5187602,27.5152261 38.5187602,25.6905025 L38.5187602,0 Z M64.6933463,33.6136985 L69.6489688,33.6136985 L69.6489688,0 L64.6933463,0 L64.6933463,33.6136985 Z M76.4066066,33.6136985 L81.3622291,33.6136985 L81.3622291,0 L76.4066066,0 L76.4066066,33.6136985 Z M69.8291382,0 L74.5595489,33.6136985 L76.2264371,33.6136985 L71.4960265,0 L69.8291382,0 Z M97.8059,1.63268342 L102.040684,1.63268342 L102.040684,31.9810151 L97.8059,31.9810151 L97.8059,33.6136985 L111.276294,33.6136985 L111.276294,31.9810151 L106.996307,31.9810151 L106.996307,1.63268342 L111.276294,1.63268342 L111.276294,0 L97.8059,0 L97.8059,1.63268342 Z" transform="translate(.876)"/>
</svg>
